# xmcd
#
# Track frame offsets:
#	150
#	14406
#	26209
#	37340
#	54686
#	68843
#	78755
#	96793
#	109342
#	123092
#	134955
#	146697
#	158926
#	174361
#	187399
#
# Disc length: 2703 seconds
#
# Revision: 1
# Processed by: cddbd v1.5.2PL0 Copyright (c) Steve Scherf et al.
# Submitted via: audiograbber 1.83.01
#
DISCID=e10a8d0f
DTITLE=Winstons - Color Him Father - Original Masters Collection
DYEAR=2000
DGENRE=Oldies
TTITLE0=Color Him Father
TTITLE1=I've Gotta Be Me
TTITLE2=The Chokin' Kind
TTITLE3=The Greatest Love
TTITLE4=A Handful Of Friends
TTITLE5=Everyday People
TTITLE6=The Days Of Sand And Shovels
TTITLE7=Birds Of A Feather
TTITLE8=Only The Strong Survive
TTITLE9=Traces
TTITLE10=Amen, Brother
TTITLE11=Love Of The Common People 
TTITLE12=Wheel Of Fortune  
TTITLE13=Say Goodbye To Daddy 
TTITLE14=Mama's Song  
EXTD=
EXTT0=
EXTT1=
EXTT2=
EXTT3=
EXTT4=
EXTT5=
EXTT6=
EXTT7=
EXTT8=
EXTT9=
EXTT10=
EXTT11=
EXTT12=
EXTT13=
EXTT14=
PLAYORDER=
